<svg
   xmlns="http://www.w3.org/2000/svg"
   width="90"
   height="40"
   viewBox="0 0 960 426.66666">
  <path
     d="m 32.323181,392.67457 c -5.46159,-2.37366 -7.683117,-7.53886 -5.336961,-12.40879 1.245017,-2.58429 3.926115,-4.25977 10.347113,-6.46613 5.593338,-1.92198 9.848716,-4.38596 12,-6.94836 1.833334,-2.1837 5.650972,-6.74819 8.483642,-10.14334 2.832669,-3.39514 5.926781,-8.75301 6.875804,-11.90637 0.949022,-3.15337 3.280464,-8.80197 5.180981,-12.55247 1.916015,-3.78106 4.057477,-11.14725 4.806716,-16.53409 0.743176,-5.34326 2.827731,-13.91502 4.632341,-19.04836 1.804611,-5.13333 4.223566,-16.53333 5.375454,-25.33333 1.151889,-8.8 3.518534,-22.3 5.259213,-30 3.308337,-14.63464 6.854501,-48.46689 8.175653,-78 0.426471,-9.53333 1.640626,-20.48552 2.698123,-24.33819 1.12725,-4.1068 1.81791,-11.82956 1.66938,-18.66666 -0.17986,-8.27887 0.50214,-14.23285 2.351,-20.524762 2.96131,-10.077715 4.60463,-12.541663 9.12052,-13.675081 5.4938,-1.378854 9.82357,1.449866 15.38145,10.04898 6.48536,10.034123 6.91191,16.029623 1.91667,26.940663 -4.13067,9.02257 -5.64901,23.83869 -2.95977,28.88172 2.63434,4.94006 7.72525,6.98377 12.90168,5.17925 7.64574,-2.66532 9.76553,-11.14447 9.60917,-38.43672 -0.10307,-17.99159 -1.63108,-30.202538 -4.40959,-35.239039 -0.9543,-1.72983 -3.45972,-6.375774 -5.56758,-10.324319 -2.10788,-3.948545 -5.67788,-8.738364 -7.93334,-10.644042 -4.98693,-4.213534 -5.69469,-11.681912 -1.50085,-15.83708 3.11161,-3.082923 22.21197,-4.970188 34.61635,-3.420364 7.09258,0.88616 8.34662,1.5835 15.30449,8.510449 4.16839,4.149859 8.27645,8.855752 9.12903,10.457543 2.47412,4.648288 1.81689,10.933533 -1.98247,18.958999 -1.94293,4.104094 -3.81171,9.929799 -4.15283,12.946012 -0.52316,4.625912 -0.13253,5.825553 2.49595,7.666671 4.17071,2.92127 9.00289,2.73862 13.85615,-0.52373 2.2,-1.478842 7.4851,-4.272584 11.74469,-6.208318 9.27895,-4.216745 11.39619,-7.636497 12.45849,-20.1229 0.88607,-10.414872 4.80151,-17.689746 11.34095,-21.071421 3.54883,-1.835173 5.06543,-1.930725 9.5098,-0.599158 2.9082,0.871315 6.86077,3.268867 8.78351,5.327891 1.92274,2.059026 6.44408,6.265316 10.04742,9.347315 6.26506,5.358589 6.81896,5.560421 12.66667,4.615467 3.36332,-0.543491 8.49077,-1.140852 11.39433,-1.32747 4.44368,-0.285601 6.37706,-1.481725 12.21571,-7.5575 5.59421,-5.82141 7.11355,-8.398966 7.85152,-13.320078 1.68004,-11.203335 7.89444,-18.008987 17.60277,-19.277564 10.68324,-1.395965 15.29962,3.050972 18.36211,17.688156 1.62543,7.768672 2.737,9.943421 7.30297,14.287941 8.7649,8.339799 6.84062,11.962945 -8.61428,16.21947 -4.40856,1.214188 -11.29214,4.5635 -15.33333,7.460659 -4.03333,2.891531 -9.43333,6.287828 -12,7.547325 -2.56667,1.259499 -6.90236,3.995555 -9.63487,6.080125 -3.59756,2.7445 -6.16097,3.67421 -9.29173,3.36994 -4.47375,-0.43478 -6.17984,-2.62127 -8.63239,-11.06309 -1.5249,-5.248817 -6.48389,-7.032224 -13.61396,-4.896004 -4.9271,1.476197 -5.85317,2.595363 -12.68192,15.326214 C 254.59551,117.19542 251.66639,120 244.51628,120 c -4.43875,0 -8.00623,-1.97136 -14.81983,-8.18927 -7.37541,-6.73062 -14.15429,-7.05934 -23.48958,-1.13907 -3.47338,2.20274 -9.17854,5.45594 -12.67814,7.22932 -3.4996,1.77338 -7.1914,4.22261 -8.20401,5.44273 -1.27035,1.53068 -2.35577,10.0357 -3.50124,27.43441 -1.09452,16.62506 -2.58621,28.59165 -4.37837,35.12413 -6.98078,25.44512 -11.54495,72.91973 -10.9693,114.09775 0.87575,62.64353 0.73666,65.66037 -3.40864,73.93626 -4.64701,9.27755 -6.81241,11.39707 -11.64381,11.39707 -5.21023,0 -9.46765,-2.91659 -12.28253,-8.41427 -1.19751,-2.33883 -3.89408,-6.22328 -5.99239,-8.63213 -2.09831,-2.40884 -3.81511,-5.19792 -3.81511,-6.19794 0,-1.00001 -1.83368,-5.30409 -4.07485,-9.56462 -5.0576,-9.61466 -4.55417,-12.11944 4.13737,-20.58527 3.63244,-3.53811 7.15552,-7.88239 7.82907,-9.65395 0.67355,-1.77156 1.64953,-10.12099 2.16887,-18.5543 1.0626,-17.25564 -0.26382,-23.82551 -5.50335,-27.25859 -1.86257,-1.2204 -3.83,-4.41172 -4.69735,-7.61944 -2.77562,-10.26516 -4.22457,-12.973 -7.98135,-14.9157 -8.26462,-4.2738 -14.1256,-0.2611 -13.40056,9.17468 1.18113,15.37124 -1.69981,48.0391 -5.02068,56.93105 -1.49753,4.00976 -3.954304,13.2857 -5.459509,20.61321 -2.1236,10.33793 -3.64207,14.44931 -6.777694,18.35117 -2.222526,2.76564 -4.900254,7.922 -5.950509,11.45859 -1.050253,3.53659 -3.143765,7.54711 -4.652248,8.91227 -1.508483,1.36516 -4.01084,4.73846 -5.560795,7.49624 -1.698344,3.02178 -4.401428,5.56608 -6.802885,6.40322 -5.936853,2.0696 -30.063515,1.65706 -35.263679,-0.60298 z M 131.71358,230 c 2.69799,-1.83334 6.00561,-3.33334 7.35026,-3.33334 2.87116,0 7.85247,-2.44132 9.24908,-4.53293 0.53877,-0.80689 0.98877,-3.71359 1,-6.45932 0.0169,-4.13968 -1.00428,-6.03167 -5.97959,-11.07843 -3.3,-3.34738 -6,-6.6471 -6,-7.3327 0,-0.6856 -2.49002,-3.05032 -5.53338,-5.25492 -5.8114,-4.20975 -10.90535,-5.14743 -12.72126,-2.3417 -0.59328,0.91667 -1.50323,7.96667 -2.02211,15.66667 -0.51887,7.7 -1.33548,16.25827 -1.81468,19.01836 -0.55846,3.21663 -0.28081,5.72983 0.77334,7 2.5395,3.05991 10.17341,2.4026 15.69834,-1.35169 z m 55.95309,152.55986 c -1.28334,-0.74747 -2.33334,-1.98716 -2.33334,-2.75485 0,-2.44383 10.54423,-13.48088 17.09078,-17.88958 C 209.14856,357.38691 224,340.95731 224,338.04679 c 0,-0.95694 2.41788,-4.08672 5.37308,-6.95504 6.50413,-6.31293 8.38877,-13.60162 4.59963,-17.78858 -3.0292,-3.34723 -6.80832,-3.33647 -12.33827,0.0352 -5.27305,3.21499 -9.35215,3.37771 -13.41069,0.53499 -2.37411,-1.66288 -2.94768,-3.1685 -2.63002,-6.9037 0.36907,-4.33965 1.26075,-5.29793 9.7396,-10.46701 5.26536,-3.21 13.21194,-6.64532 18.23216,-7.88181 6.19242,-1.52519 10.55652,-3.61071 14.34938,-6.85726 7.13438,-6.10676 8.01373,-7.97208 9.34209,-19.81714 0.67555,-6.02376 2.0992,-11.35378 3.5972,-13.46752 5.03368,-7.10278 5.77361,-9.32148 5.79285,-17.36982 0.0107,-4.52336 0.38384,-9.17336 0.82898,-10.33333 1.10993,-2.89247 6.24645,-2.64545 11.49178,0.55263 7.09328,4.32477 15.26171,3.13792 18.36951,-2.66906 0.76912,-1.4371 1.99376,-7.3611 2.72144,-13.16442 0.72768,-5.80334 2.51215,-14.0077 3.96549,-18.23192 3.29395,-9.574 3.33411,-14.67314 0.16242,-20.61603 -1.36403,-2.5558 -2.93299,-6.14692 -3.48659,-7.98025 -0.55359,-1.83334 -2.24216,-4.68334 -3.75237,-6.33334 -2.52172,-2.75518 -3.91692,-3.00005 -17.09328,-3.00005 -15.9669,0 -21.18772,-1.27917 -21.18772,-5.19128 0,-4.6884 1.59309,-6.88704 6.98236,-9.63644 7.5787,-3.86636 16.30485,-4.90532 31.3872,-3.73704 11.6806,0.90479 14.1673,1.57698 22.23116,6.00944 8.06325,4.43212 9.45,5.80005 12.39008,12.22204 3.01352,6.58239 3.18546,7.90899 1.91598,14.78231 -0.76704,4.15304 -1.79789,17.15097 -2.29077,28.8843 -0.50739,12.07887 -1.62672,23.06855 -2.58028,25.33334 -2.08627,4.95506 -12.33657,16.66666 -14.58712,16.66666 -0.91195,0 -4.31096,1.75512 -7.55336,3.90027 -3.24239,2.14515 -8.74575,4.61649 -12.22968,5.49189 -17.28737,4.34375 -19.9042,26.21858 -2.77583,23.20398 2.81064,-0.49468 8.11026,-2.88 11.77692,-5.30072 3.66667,-2.42072 10.16107,-5.38216 14.432,-6.58096 7.0934,-1.99104 8.38596,-1.99923 14.93782,-0.0945 16.15277,4.69574 14.58729,16.41099 -2.87115,21.4863 -4.27749,1.2435 -9.90365,3.66809 -12.50259,5.38798 -2.59893,1.7199 -9.30372,4.29803 -14.89952,5.7292 -20.5497,5.25574 -32.79298,14.39526 -35.73996,26.67963 -0.913,3.80579 -3.0798,8.60696 -4.81513,10.66929 -1.73533,2.06232 -4.40565,6.67723 -5.93404,10.25535 -1.52839,3.57812 -4.14481,8.00568 -5.81428,9.83901 -1.66947,1.83333 -4.36113,5.55309 -5.98148,8.26612 -1.62035,2.71304 -4.92171,6.1538 -7.33637,7.64615 -2.41466,1.49233 -6.66944,4.52458 -9.45507,6.73833 -2.78564,2.21373 -8.00028,4.89673 -11.58811,5.9622 -3.58781,1.06547 -8.15278,3.09537 -10.14437,4.51089 -3.0024,2.13395 -12.48333,5.61772 -14.95441,5.49499 -0.36667,-0.0181 -1.71667,-0.64467 -3,-1.39215 z m 487,-5.00685 c -11.04534,-5.85411 -14.64878,-10.21562 -14.65966,-17.7437 -0.0107,-7.82489 4.37776,-8.0628 13.5844,-0.73632 4.35652,3.46684 5.60452,3.81708 10.81626,3.03554 8.3412,-1.25084 19.25906,-8.27594 24.29076,-15.62987 3.57852,-5.23009 4.35582,-7.81009 5.02132,-16.66667 0.43305,-5.76326 1.45074,-16.77866 2.26154,-24.47866 0.85082,-8.08007 1.3074,-31.27861 1.07978,-54.86205 -0.36676,-37.99863 -0.57239,-41.0586 -2.93439,-43.66667 -3.39928,-3.75343 -9.03741,-3.54901 -13.85204,0.50223 -2.16148,1.81876 -6.85751,4.56165 -10.43563,6.0953 -3.57812,1.53366 -7.61805,3.79559 -8.97761,5.0265 -2.70876,2.45244 -14.18037,9.15345 -23.39897,13.66824 -6.26316,3.06736 -26.19383,5.71389 -43.72864,5.8066 -11.47414,0.0607 -16.8044,-2.87218 -17.4786,-9.61707 -0.71318,-7.13484 2.80341,-11.74503 11.3925,-14.93544 4.22711,-1.57015 11.23148,-4.61644 15.56527,-6.76956 4.3338,-2.15311 8.68207,-3.91475 9.66283,-3.91475 0.98076,0 4.03492,-2.033 6.78704,-4.51776 2.80761,-2.53488 8.12661,-5.44437 12.1187,-6.62892 3.91318,-1.16112 9.01318,-3.27734 11.33334,-4.7027 2.32016,-1.42538 8.2434,-3.8863 13.16277,-5.46872 4.91937,-1.58244 10.31937,-3.94728 12,-5.25522 1.68063,-1.30794 5.75569,-3.57109 9.05569,-5.02925 3.3,-1.45815 8.62184,-5.50861 11.82632,-9.00105 l 5.82634,-6.34987 -0.93074,-10.85659 c -0.5119,-5.97112 -2.08374,-13.48285 -3.49298,-16.69274 -3.65943,-8.3352 -3.30891,-12.95567 1.33517,-17.59974 3.24404,-3.24404 4.9764,-3.89253 10.33333,-3.86815 6.14244,0.0279 14.79856,3.15351 19.10256,6.89757 1.1,0.9569 6.37324,6.64508 11.71831,12.6404 8.62885,9.67858 10.42252,11.04217 16,12.16345 3.75553,0.755 10.30315,0.80245 16.28169,0.118 25.39886,-2.90787 28.6039,-2.95888 33.39976,-0.53165 12.6622,6.40846 13.81484,12.49226 4.52699,23.89408 -3.34029,4.10056 -6.79029,7.47428 -7.66667,7.49714 -0.87637,0.0229 -8.54429,0.86864 -17.03982,1.87947 -13.679,1.62759 -16.70127,2.48592 -26.41328,7.50157 -15.33667,7.92043 -16.56059,10.46038 -16.98299,35.24404 -0.39964,23.44888 -1.53591,34.71768 -4.10053,40.66667 -1.33715,3.10168 -2.38054,12.26804 -3.11131,27.33333 -0.60472,12.46667 -1.73607,26.56667 -2.51409,31.33334 -0.77803,4.76666 -1.03283,13.30813 -0.56622,18.98105 l 0.8484,10.31438 -6.30424,9.39632 c -3.46734,5.16798 -7.90289,10.38579 -9.8568,11.59514 -1.95389,1.20934 -5.05253,3.5159 -6.88586,5.12568 -1.83334,1.60977 -6.63334,3.98274 -10.66667,5.27326 -4.03333,1.29051 -9.52828,3.44824 -12.21097,4.79496 -9.592,4.81515 -14.08324,4.5897 -25.12236,-1.26112 z m -347.7141,-4.27878 c -1.67608,-0.67286 -4.07608,-3.09216 -5.33333,-5.37621 -1.25725,-2.28404 -3.90289,-6.23644 -5.87921,-8.78311 -1.97632,-2.54666 -4.32006,-6.83934 -5.2083,-9.53928 -0.88825,-2.69993 -3.09561,-7.15082 -4.90524,-9.89088 -3.06216,-4.63656 -3.14706,-5.2004 -1.22488,-8.13402 2.20456,-3.36459 9.79727,-7.55074 13.69528,-7.55074 3.21363,0 19.3862,6.4992 22.07434,8.87092 3.04126,2.68327 7.82877,15.77035 7.82877,21.40063 0,2.58549 -1.55709,7.56181 -3.46023,11.05848 -4.6127,8.47507 -10.09561,10.95173 -17.5872,7.94421 z M 221.58475,253.28138 c -3.4639,-3.2271 -3.55542,-4.47305 -0.8846,-12.04293 1.50638,-4.26957 2.14222,-12.92931 2.45306,-33.40901 0.47791,-31.48787 0.88916,-32.89542 10.9059,-37.32628 6.8784,-3.04264 10.12757,-2.534 20.87178,3.26738 7.3439,3.96536 7.82054,4.0452 14.27518,2.39092 10.5162,-2.69521 17.4606,0.75603 17.4606,8.67762 0,5.02692 -2.41015,6.74649 -14.45595,10.31393 -6.76047,2.00216 -7.38485,1.97563 -12.28021,-0.5218 -5.97231,-3.04684 -10.98108,-3.38176 -13.06279,-0.87347 -1.56871,1.89018 -1.14855,41.00444 0.48539,45.18727 1.33597,3.42005 -1.76123,11.32473 -5.62944,14.36747 -4.77675,3.75738 -16.09122,3.73992 -20.13892,-0.0311 z m 423.74858,-82.99317 c -3.03048,-1.52053 -13.18418,-19.14321 -13.29312,-23.07144 -0.0948,-3.41705 11.0018,-23.1562 13.45524,-23.93489 1.59896,-0.50749 5.19371,0.51143 9.20604,2.60942 7.69074,4.02137 10.51262,4.21732 18.23918,1.26652 6.91325,-2.64019 9.726,-1.07547 9.726,5.41055 0,3.07041 -1.24711,5.4506 -4.51591,8.61884 -3.50433,3.39653 -4.87387,6.19648 -6.11395,12.49972 -1.91078,9.71235 -6.3086,14.55892 -15.25497,16.81164 -7.33031,1.8458 -7.35125,1.84541 -11.44851,-0.21036 z M 772.26667,126.4 c -2.5223,-2.5223 -1.88816,-5.66516 1.84976,-9.16758 3.78116,-3.54295 7.2169,-10.66839 7.2169,-14.96726 0,-1.50837 -0.70981,-4.705458 -1.57736,-7.104628 -2.11176,-5.839968 -0.14042,-9.985917 6.99266,-14.706367 7.87524,-5.211585 12.36912,-4.775196 22.1968,2.155474 13.56262,9.564628 13.92066,14.856527 1.8862,27.878531 -4.6208,4.99998 -7.30071,6.84516 -9.94178,6.84516 -1.98864,0 -8.38908,2.4 -14.22318,5.33333 -11.76099,5.91331 -12.12552,6.00782 -14.4,3.73334 z m -98.6,-39.283043 c -3.73028,-1.505198 -1.6819,-7.501288 4.66666,-13.660355 11.2482,-10.912472 24.25191,-26.269377 26.20778,-30.950431 2.37634,-5.6874 5.18793,-8.136713 12.6747,-11.041561 3.23536,-1.255312 7.11887,-3.148386 8.63,-4.206832 7.45638,-5.222641 20.49735,0.577763 33.15419,14.746415 6.98856,7.823318 8.23045,13.432022 3.92701,17.735455 -5.70685,5.706851 -20.56636,12.507352 -32.67022,14.951635 -6.74123,1.361341 -15.11,3.74221 -18.59726,5.290822 -3.48726,1.548612 -10.68726,3.322307 -16,3.941544 -5.31274,0.619236 -11.34858,1.78974 -13.413,2.601118 -3.96564,1.558621 -5.86065,1.689417 -8.57986,0.59219 z"
     style="fill:#ffffff" />
</svg>
