<svg
   xmlns="http://www.w3.org/2000/svg"
   width="78"
   height="40"
   viewBox="0 0 624 320">
  <path
     d="m 332.65087,307.50564 c -6.51703,-1.85381 -12.05579,-3.57723 -12.30837,-3.8298 -0.25257,-0.25258 3.29219,-18.61675 7.87726,-40.80926 6.38919,-30.9248 8.69462,-40.41899 9.86968,-40.64529 1.12228,-0.21613 17.94609,8.60476 21.78846,11.42392 0.20785,0.1525 -2.63878,16.38221 -6.32584,36.06603 -8.31291,44.37946 -7.68354,41.3005 -8.42706,41.22687 -0.34375,-0.034 -5.95711,-1.57865 -12.47413,-3.43247 z m 60.29099,-5.25564 -8.76884,-8.75 -2.61034,-33 c -1.43569,-18.15 -2.83375,-34.40246 -3.10679,-36.11657 l -0.49645,-3.11657 8.77028,-1.12369 c 4.82365,-0.61802 11.65334,-1.42455 15.17708,-1.79227 l 6.4068,-0.66859 -0.71775,34.70137 -0.71775,34.70138 4.81095,-0.57848 c 2.64602,-0.31816 34.73595,-3.02541 71.31095,-6.01611 36.575,-2.99071 68.8625,-5.70691 71.75,-6.03601 l 5.25,-0.59837 v 15.02664 15.02664 l -3.25,0.49424 c -3.46198,0.52647 -143.22298,6.67258 -150.64465,6.62473 -4.17691,-0.0269 -4.82913,-0.46189 -13.16349,-8.77834 z M 28.5,301.48033 C 20.355762,295.49884 18.357343,293.52015 17.731273,290.81794 17.144409,288.28495 7,186.08713 7,182.70788 7,182.31855 9.475,182 12.5,182 H 18 v -6.50869 -6.50868 l 53.703392,0.25868 53.703388,0.25869 6.97673,9.9037 6.97673,9.9037 -1.21074,35.5963 c -0.66592,19.57796 -1.48011,38.6338 -1.80934,42.3463 L 135.74158,274 H 141.87079 148 v 14.41468 14.41468 l -7.25,0.60015 c -10.81412,0.89518 -95.779625,5.59204 -99.25,5.4865 -2.064896,-0.0628 -6.117013,-2.38051 -13,-7.43568 z m 50.453175,-21.99886 c 16.199247,-1.3683 29.847755,-2.8824 30.330025,-3.36467 0.76146,-0.76146 6.65996,-71.05852 6.70148,-79.8668 0.0152,-3.21746 -0.0322,-3.24966 -4.73468,-3.21562 -2.6125,0.0189 -19.6,2.16989 -37.75,4.77995 l -33,4.74557 -0.262178,37.87699 c -0.29438,42.52918 -0.247497,42.85749 5.99578,41.98755 1.796519,-0.25033 16.520327,-1.57466 32.719573,-2.94297 z m 492.767875,-7.00169 c -9.74658,-19.53612 -17.71649,-35.84862 -17.71092,-36.25 0.0105,-0.76029 25.0272,-13.57863 25.44512,-13.03788 2.10086,2.71836 38.58302,76.26599 38.25481,77.12128 -0.35278,0.91935 -25.13701,7.80523 -27.73901,7.70682 -0.29092,-0.011 -8.50342,-16.0041 -18.25,-35.54022 z m -392.20174,25.58254 -8.98069,-7.95219 -3.67041,-48.30507 C 164.84948,215.23728 162.90952,190.2375 162.55719,186.25 L 161.9166,179 H 168.4583 175 v -7.5 c 0,-5.32653 0.36225,-7.5037 1.25,-7.51276 4.5145,-0.0461 99.26472,4.17519 103.46997,4.60975 l 5.21997,0.53942 6.69763,9.67338 6.69763,9.67339 -1.18418,36.50841 c -0.6513,20.07963 -1.17672,38.87091 -1.1676,41.75841 L 296,272 h 5 5 v 14.91023 14.91023 l -8.25,0.57385 c -4.5375,0.31561 -24,1.03208 -43.25,1.59214 -19.25,0.56007 -41.975,1.2455 -50.5,1.52319 l -15.5,0.50487 z m 56.30323,-20.10757 c 17.96738,-1.67489 32.93613,-3.36239 33.26388,-3.75 0.52883,-0.6254 7.01646,-76.86435 6.94291,-81.58912 -0.0266,-1.70978 -0.65471,-1.83559 -6.77933,-1.35793 -7.68375,0.59926 -69.02168,7.48306 -74.06327,8.31194 l -3.31328,0.54473 0.31328,39.02432 c 0.29928,37.28184 0.39994,39.08765 2.2544,40.44281 2.62105,1.91536 3.9393,1.86354 41.38141,-1.62675 z M 465.25517,252.75 c -14.39709,-8.9375 -26.19423,-16.62018 -26.21585,-17.07263 -0.0216,-0.45245 3.73439,-5.24857 8.34669,-10.65804 4.61231,-5.40948 8.58183,-10.42286 8.82117,-11.14086 0.29838,-0.89516 1.82711,-0.18499 4.86398,2.25955 2.43586,1.96075 13.87884,10.44438 25.42884,18.8525 11.55,8.40813 21.4338,15.68125 21.964,16.16249 0.59016,0.53566 -2.30979,4.16587 -7.47792,9.36099 -4.64306,4.6673 -8.69222,8.486 -8.99815,8.486 -0.30592,0 -12.33566,-7.3125 -26.73276,-16.25 z m 72.25898,-39.92393 c -14.29222,-3.28044 -26.15261,-6.13119 -26.35642,-6.33501 -0.20382,-0.20382 1.47865,-6.56134 3.73883,-14.12784 2.26017,-7.56649 3.77056,-14.07572 3.35642,-14.46495 -0.41414,-0.38922 -4.95561,-0.86306 -10.09216,-1.05297 l -9.33919,-0.3453 -7.00432,18 c -3.85237,9.9 -7.39882,18.41408 -7.88098,18.92017 -0.52898,0.55523 -5.61959,-0.39355 -12.83581,-2.39233 l -11.95914,-3.31249 2.064,-5.10767 c 1.13519,-2.80923 3.06409,-7.80768 4.28644,-11.10768 2.26526,-6.1156 2.7663,-7.41485 5.16894,-13.40354 0.75102,-1.87195 1.13321,-3.63583 0.8493,-3.91974 -0.28391,-0.2839 -9.85232,-1.3075 -21.26313,-2.27465 -11.41081,-0.96715 -23.05853,-1.978 -25.88382,-2.24634 l -5.13688,-0.48788 -6.21895,14.16608 c -3.42043,7.79134 -7.35778,16.75357 -8.74968,19.91607 -1.57287,3.57367 -3.1414,5.75118 -4.14416,5.75311 -4.32529,0.008 -25.11024,-4.48909 -25.08799,-5.42851 0.014,-0.59103 3.55233,-8.9496 7.86295,-18.5746 4.31063,-9.625 7.74534,-17.61634 7.63269,-17.75853 C 390.40844,167.09928 385.67395,166.54062 380,166 c -5.67395,-0.54062 -10.55853,-1.22519 -10.85461,-1.52128 -0.29608,-0.29608 -0.73039,-5.92492 -0.96512,-12.50852 -0.34545,-9.68925 -0.1651,-11.97045 0.94648,-11.97151 0.75529,-7.2e-4 8.23326,0.75177 16.61773,1.67219 8.38446,0.92043 15.45175,1.46623 15.70508,1.21289 0.25334,-0.25334 2.7345,-5.56392 5.5137,-11.80131 l 5.05308,-11.34069 -3.75817,0.56684 c -2.06699,0.31177 -14.70374,1.58624 -28.08166,2.83217 -19.33022,1.80029 -24.48772,2.58289 -25.12352,3.81227 -0.44002,0.85082 -3.18687,12.23445 -6.1041,25.29695 -4.16753,18.66093 -5.64099,23.75197 -6.87648,23.75917 -0.86482,0.005 -6.64891,-0.94638 -12.85352,-2.11429 -9.41449,-1.7721 -11.20224,-2.39411 -10.80441,-3.75917 0.26218,-0.89964 4.7912,-20.98571 10.06449,-44.63571 14.85704,-66.631954 13.82024,-62.492574 15.65372,-62.496502 1.17319,-0.0025 16.96376,10.54532 21.58961,14.421496 0.12227,0.10245 -0.66523,3.902245 -1.75,8.443987 -1.08476,4.541742 -1.9723,8.454207 -1.9723,8.694366 0,1.071833 20.91008,-0.08811 116.5,-6.462605 l 102,-6.801954 2.85248,2.600606 c 1.56887,1.430333 7.08137,7.394044 12.25,13.252691 L 605,107.80417 l -0.0666,5.34791 c -0.0366,2.94136 -1.51118,23.11296 -3.27682,44.82578 l -3.21025,39.47786 -5.72155,4.60938 c -3.14685,2.53516 -9.99729,7.02894 -15.22319,9.98617 -5.22589,2.95723 -9.50163,5.73048 -9.50163,6.16276 0,1.39562 -4.04857,0.68009 -30.48585,-5.38796 z M 569.5,186.59266 l 3,-2.39741 5.13766,-37.84763 5.13767,-37.84762 -2.28119,-2.37079 -2.28118,-2.3708 -15.35648,1.67959 c -17.46342,1.91004 -31.18599,4.0837 -35.68745,5.65292 -2.86738,0.99957 -3.63643,2.49293 -11.45342,22.2403 -4.60881,11.64283 -8.24325,21.34327 -8.07655,21.55653 0.16671,0.21326 8.97325,1.34237 19.57009,2.50913 16.33607,1.79868 19.31694,2.38084 19.59545,3.82702 0.18067,0.93811 -1.50705,5.84091 -3.75048,10.89512 -2.24342,5.05421 -3.81727,9.45757 -3.49744,9.78523 0.77285,0.79177 22.38895,6.83814 24.94332,6.97705 1.1,0.0598 3.35,-0.97007 5,-2.28864 z M 480.98329,149.75 c 2.38909,-5.71607 13.8647,-37.23535 13.63892,-37.46112 -0.2892,-0.28921 -51.98299,4.73857 -52.33451,5.09009 -0.1258,0.1258 -3.11504,6.72949 -6.64276,14.67488 L 429.2309,146.5 l 22.63455,2.62325 c 29.17572,3.38134 27.97731,3.35554 29.11784,0.62675 z M 36.621545,134.12211 27.784788,125.24422 25.950264,85.37211 C 24.941275,63.44245 23.939116,42.0125 23.723242,37.75 L 23.330745,30 H 30.665373 38 V 22.471865 14.94373 l 11.75,0.567524 c 6.4625,0.312138 33.35,1.205167 59.75,1.984508 26.4,0.779342 73.05586,2.204543 103.67968,3.167115 l 55.67968,1.75013 6.5287,9.184788 6.5287,9.184788 -1.44465,31.858709 c -0.79457,17.522289 -1.45084,32.928458 -1.45839,34.235938 -0.013,2.25139 0.25096,2.3518 4.98628,1.89679 l 5,-0.48043 v 15.71452 15.71452 l -33.75,0.68512 c -65.89583,1.33767 -151.16793,2.55499 -180.270849,2.57349 L 45.458301,143 Z M 154.95869,114.50189 c 54.10397,-2.47396 98.43632,-4.61146 98.51633,-4.75 0.70875,-1.22727 6.71747,-61.892734 6.1832,-62.427005 C 258.9252,46.591863 77.496392,49.595174 61.25,50.609268 L 52,51.186649 V 85.093325 119 h 2.293908 c 1.261649,0 46.560802,-2.02415 100.664782,-4.49811 z M 371.63149,69.251981 C 371.35399,68.288391 370.82016,63.5625 370.44519,58.75 L 369.76345,50 H 342.88172 316 V 36.64155 23.2831 l 26.10172,0.501976 26.10173,0.501976 -0.72,-8.643526 L 366.76345,7 h 10.49327 c 5.77131,0 11.89953,0.28125 13.61828,0.625 L 394,8.25 v 8.237992 8.237992 l 9.25,0.627027 c 9.95074,0.674528 67.90495,2.281894 110.39414,3.061793 l 26.14415,0.479882 0.71515,-10.947343 c 0.60036,-9.1902086 0.9785,-10.9475413 2.35586,-10.9485784 3.54883,-0.00267 25.14062,3.3567784 25.13933,3.9114114 -7.5e-4,0.324403 -0.66908,4.383994 -1.48518,9.021313 -0.81609,4.637318 -1.36309,8.552201 -1.21556,8.699739 0.14754,0.147538 11.39087,0.585614 24.98518,0.973503 L 615,30.309982 V 40.154991 50 h -26.87117 -26.87117 l -0.66371,5.25 C 559.01661,67.726904 559.93852,66.617984 550.09339,67.880571 545.29253,68.496257 540.09587,69 538.54527,69 h -2.81929 l 0.69735,-9.5 0.69734,-9.5 H 465.56034 394 v 8.888709 8.888709 l -3.25,0.576411 c -1.7875,0.317026 -5.725,0.844302 -8.75,1.171723 -3.025,0.327421 -6.48189,0.794008 -7.68198,1.036861 -1.47214,0.297903 -2.34613,-0.128409 -2.68653,-1.310432 z"
     style="fill:#ffffff" />
</svg>
