<svg xmlns="http://www.w3.org/2000/svg" width="130" height="100"><text xmlns="http://www.w3.org/2000/svg" x="15%" y="75%" text-anchor="middle" transform="rotate(-30)" fill-opacity="0.04" style="font: bold 45px sans-serif; ">品葱</text><svg xmlns="http://www.w3.org/2000/svg" xmlns:xlink="http://www.w3.org/1999/xlink" version="1.1" id="Layer_1" x="25%" y="75%">
<g>
	<defs>
		<rect id="SVGID_1_" width="32" height="32"/>
	</defs>
	<clipPath id="SVGID_2_">
		<use xmlns:xlink="http://www.w3.org/1999/xlink" xlink:href="#SVGID_1_" overflow="visible"/>
	</clipPath>
	<path clip-path="url(#SVGID_2_)" fill="#FFFFFF" d="M11.3,20.4c-0.3-0.4-0.6-1.1-1.2-2c-0.3-0.5-1.2-1.5-1.5-1.9   c-0.2-0.4-0.2-0.6-0.1-1c0.1-0.6,0.7-1.1,1.4-1.1c0.5,0,1,0.4,1.4,0.7c0.2,0.2,0.5,0.6,0.7,0.8c0.2,0.2,0.2,0.3,0.4,0.5   c0.2,0.3,0.3,0.5,0.2,0.1c-0.1-0.5-0.2-1.3-0.4-2.1c-0.1-0.6-0.2-0.7-0.3-1.1c-0.1-0.5-0.2-0.8-0.3-1.3c-0.1-0.3-0.2-1.1-0.3-1.5   c-0.1-0.5-0.1-1.4,0.3-1.8c0.3-0.3,0.9-0.4,1.3-0.2c0.5,0.3,0.8,1,0.9,1.3c0.2,0.5,0.4,1.2,0.5,2c0.2,1,0.5,2.5,0.5,2.8   c0-0.4-0.1-1.1,0-1.5c0.1-0.3,0.3-0.7,0.7-0.8c0.3-0.1,0.6-0.1,0.9-0.1c0.3,0.1,0.6,0.3,0.8,0.5c0.4,0.6,0.4,1.9,0.4,1.8   c0.1-0.4,0.1-1.2,0.3-1.6c0.1-0.2,0.5-0.4,0.7-0.5c0.3-0.1,0.7-0.1,1,0c0.2,0,0.6,0.3,0.7,0.5c0.2,0.3,0.3,1.3,0.4,1.7   c0,0.1,0.1-0.4,0.3-0.7c0.4-0.6,1.8-0.8,1.9,0.6c0,0.7,0,0.6,0,1.1c0,0.5,0,0.8,0,1.2c0,0.4-0.1,1.3-0.2,1.7   c-0.1,0.3-0.4,1-0.7,1.4c0,0-1.1,1.2-1.2,1.8c-0.1,0.6-0.1,0.6-0.1,1c0,0.4,0.1,0.9,0.1,0.9s-0.8,0.1-1.2,0c-0.4-0.1-0.9-0.8-1-1.1   c-0.2-0.3-0.5-0.3-0.7,0c-0.2,0.4-0.7,1.1-1.1,1.1c-0.7,0.1-2.1,0-3.1,0c0,0,0.2-1-0.2-1.4c-0.3-0.3-0.8-0.8-1.1-1.1L11.3,20.4z" fill-opacity="0.2"/>

		<path clip-path="url(#SVGID_2_)" fill="none" stroke="#000000" stroke-width="0.75" stroke-linecap="round" stroke-linejoin="round" d="   M11.3,20.4c-0.3-0.4-0.6-1.1-1.2-2c-0.3-0.5-1.2-1.5-1.5-1.9c-0.2-0.4-0.2-0.6-0.1-1c0.1-0.6,0.7-1.1,1.4-1.1c0.5,0,1,0.4,1.4,0.7   c0.2,0.2,0.5,0.6,0.7,0.8c0.2,0.2,0.2,0.3,0.4,0.5c0.2,0.3,0.3,0.5,0.2,0.1c-0.1-0.5-0.2-1.3-0.4-2.1c-0.1-0.6-0.2-0.7-0.3-1.1   c-0.1-0.5-0.2-0.8-0.3-1.3c-0.1-0.3-0.2-1.1-0.3-1.5c-0.1-0.5-0.1-1.4,0.3-1.8c0.3-0.3,0.9-0.4,1.3-0.2c0.5,0.3,0.8,1,0.9,1.3   c0.2,0.5,0.4,1.2,0.5,2c0.2,1,0.5,2.5,0.5,2.8c0-0.4-0.1-1.1,0-1.5c0.1-0.3,0.3-0.7,0.7-0.8c0.3-0.1,0.6-0.1,0.9-0.1   c0.3,0.1,0.6,0.3,0.8,0.5c0.4,0.6,0.4,1.9,0.4,1.8c0.1-0.4,0.1-1.2,0.3-1.6c0.1-0.2,0.5-0.4,0.7-0.5c0.3-0.1,0.7-0.1,1,0   c0.2,0,0.6,0.3,0.7,0.5c0.2,0.3,0.3,1.3,0.4,1.7c0,0.1,0.1-0.4,0.3-0.7c0.4-0.6,1.8-0.8,1.9,0.6c0,0.7,0,0.6,0,1.1   c0,0.5,0,0.8,0,1.2c0,0.4-0.1,1.3-0.2,1.7c-0.1,0.3-0.4,1-0.7,1.4c0,0-1.1,1.2-1.2,1.8c-0.1,0.6-0.1,0.6-0.1,1   c0,0.4,0.1,0.9,0.1,0.9s-0.8,0.1-1.2,0c-0.4-0.1-0.9-0.8-1-1.1c-0.2-0.3-0.5-0.3-0.7,0c-0.2,0.4-0.7,1.1-1.1,1.1   c-0.7,0.1-2.1,0-3.1,0c0,0,0.2-1-0.2-1.4c-0.3-0.3-0.8-0.8-1.1-1.1L11.3,20.4z" opacity="0.1"/>

		<line clip-path="url(#SVGID_2_)" fill="none" stroke="#000000" stroke-width="0.75" stroke-linecap="round" x1="19.6" y1="20.7" x2="19.6" y2="17.3" opacity="0.05"/>

		<line clip-path="url(#SVGID_2_)" fill="none" stroke="#000000" stroke-width="0.75" stroke-linecap="round" x1="17.6" y1="20.7" x2="17.5" y2="17.3" opacity="0.05"/>

		<line clip-path="url(#SVGID_2_)" fill="none" stroke="#000000" stroke-width="0.75" stroke-linecap="round" x1="15.6" y1="17.3" x2="15.6" y2="20.7" opacity="0.05"/>
</g>

</svg>

<text x="15%" y="90%" text-anchor="middle" transform="rotate(-30)" fill-opacity="0.07" text-decoration="underline">pincong.org</text></svg>
